<mxfile host="app.diagrams.net" modified="2023-08-23T00:04:54.530Z" agent="Mozilla/5.0 (Windows NT 10.0; Win64; x64) AppleWebKit/537.36 (KHTML, like Gecko) Chrome/107.0.0.0 Safari/537.36 Edg/107.0.1418.35" version="21.6.9" etag="BE82_O6oT0IcwPujuyTc" type="github">
  <diagram name="PÃ¡gina-1" id="WRP0MxbtRbIxoMFxNp-_">
    <mxGraphModel>
      <root>
        <mxCell id="0" />
        <mxCell id="1" parent="0" />
      </root>
    </mxGraphModel>
  </diagram>
</mxfile>
